<?xml version="1.0" encoding="utf-8"?>
<!-- Generator: Adobe Illustrator 23.0.1, SVG Export Plug-In . SVG Version: 6.00 Build 0)  -->
<svg version="1.1" baseProfile="tiny" id="Calque_2"
	 xmlns="http://www.w3.org/2000/svg" xmlns:xlink="http://www.w3.org/1999/xlink" x="0px" y="0px" viewBox="0 0 174.1 62.7"
	 xml:space="preserve">
<g id="iPhone_6_7_8_1">
	<rect x="-20" y="-28.1" display="none" fill="#FFFFFF" width="219" height="104"/>
	<g id="Symbole_3_2" transform="translate(-339)">
		<polygon fill="#FF7254" points="351.4,0 351.4,5.2 344.2,5.2 344.2,12.4 339,12.4 339,51.1 377.7,51.1 377.7,45.9 384.9,45.9 
			384.9,38.7 390.1,38.7 390.1,0 		"/>
		<g>
			<path fill="#FF7254" d="M395.2,24.6h4.5V28h0.1c0.9-1.3,2.1-2.3,3.6-3c1.5-0.7,3.1-1,4.7-1c1.8,0,3.5,0.3,5,0.9
				c1.5,0.6,2.8,1.5,3.8,2.6c1.1,1.1,1.9,2.5,2.4,4c0.6,1.5,0.8,3.1,0.8,4.9c0,1.8-0.3,3.4-0.8,4.9c-0.6,1.5-1.4,2.8-2.4,4
				c-1,1.1-2.3,2-3.8,2.6c-1.5,0.6-3.1,0.9-5,0.9c-1.7,0-3.3-0.4-4.8-1.1c-1.5-0.7-2.7-1.7-3.5-2.9h-0.1v17.5h-4.5V24.6z
				 M407.5,28.2c-1.2,0-2.3,0.2-3.3,0.6c-1,0.4-1.8,1-2.5,1.7c-0.7,0.7-1.2,1.6-1.5,2.6c-0.4,1-0.6,2.1-0.6,3.3
				c0,1.2,0.2,2.3,0.6,3.3c0.4,1,0.9,1.9,1.5,2.6c0.7,0.7,1.5,1.3,2.5,1.7c1,0.4,2,0.6,3.3,0.6c1.2,0,2.3-0.2,3.3-0.6
				c1-0.4,1.8-1,2.4-1.7c0.7-0.7,1.2-1.6,1.6-2.6c0.4-1,0.5-2.1,0.5-3.3c0-1.2-0.2-2.3-0.5-3.3c-0.4-1-0.9-1.9-1.6-2.6
				c-0.7-0.7-1.5-1.3-2.4-1.7C409.8,28.4,408.7,28.2,407.5,28.2z"/>
			<path fill="#FF7254" d="M425,16.1c0-0.9,0.3-1.7,1-2.3c0.7-0.6,1.4-1,2.3-1c0.9,0,1.7,0.3,2.3,1c0.6,0.7,1,1.4,1,2.3
				c0,0.9-0.3,1.7-1,2.3c-0.7,0.7-1.4,1-2.3,1c-0.9,0-1.7-0.3-2.3-1C425.4,17.8,425,17,425,16.1z M426.1,24.6h4.5v23.7h-4.5V24.6z"
				/>
			<path fill="#FF7254" d="M450.3,30.5c-0.5-0.7-1.2-1.2-2-1.7c-0.8-0.5-1.7-0.7-2.9-0.7c-1.1,0-2,0.2-2.8,0.7s-1.2,1.1-1.2,2
				c0,0.7,0.2,1.3,0.7,1.7c0.5,0.4,1,0.8,1.6,1c0.6,0.3,1.3,0.5,2,0.6s1.3,0.3,1.8,0.3c1,0.2,1.9,0.5,2.7,0.8
				c0.8,0.3,1.6,0.8,2.2,1.3s1.1,1.2,1.5,1.9c0.4,0.8,0.5,1.7,0.5,2.8c0,1.3-0.3,2.5-0.9,3.4s-1.3,1.7-2.2,2.3
				c-0.9,0.6-1.9,1-3.1,1.3c-1.2,0.3-2.3,0.4-3.5,0.4c-2,0-3.7-0.3-5.2-0.9c-1.5-0.6-2.8-1.7-4-3.3l3.4-2.8c0.7,0.7,1.6,1.4,2.5,2
				c0.9,0.6,2,0.9,3.3,0.9c0.6,0,1.1-0.1,1.7-0.2c0.6-0.1,1.1-0.3,1.5-0.5s0.8-0.6,1.1-1c0.3-0.4,0.4-0.8,0.4-1.3
				c0-0.7-0.2-1.2-0.6-1.7c-0.4-0.4-0.9-0.8-1.5-1c-0.6-0.3-1.2-0.4-1.9-0.6c-0.6-0.2-1.2-0.3-1.7-0.4c-1-0.2-1.9-0.5-2.8-0.8
				c-0.9-0.3-1.6-0.7-2.3-1.2c-0.7-0.5-1.2-1.1-1.6-1.9c-0.4-0.8-0.6-1.7-0.6-2.8c0-1.2,0.3-2.3,0.8-3.2s1.2-1.7,2.1-2.3
				c0.8-0.6,1.8-1,2.9-1.3c1.1-0.3,2.2-0.5,3.3-0.5c1.6,0,3.1,0.3,4.6,0.9c1.5,0.6,2.6,1.6,3.5,3L450.3,30.5z"/>
			<path fill="#FF7254" d="M472.6,28.5h-6.5v10.8c0,0.7,0,1.3,0,2c0,0.7,0.2,1.2,0.4,1.8c0.2,0.5,0.5,0.9,1,1.3
				c0.5,0.3,1.1,0.5,2,0.5c0.5,0,1.1-0.1,1.7-0.2c0.6-0.1,1.1-0.3,1.5-0.5v4.1c-0.5,0.3-1.2,0.5-2.1,0.6c-0.8,0.1-1.5,0.2-2,0.2
				c-1.7,0-3.1-0.2-4-0.7c-0.9-0.5-1.6-1.1-2.1-1.9c-0.5-0.8-0.7-1.6-0.8-2.6c-0.1-1-0.1-1.9-0.1-2.9V28.5h-5.2v-3.9h5.2v-6.6h4.5
				v6.6h6.5V28.5z"/>
			<path fill="#FF7254" d="M477.3,36.4c0-1.7,0.3-3.4,1-4.9c0.7-1.5,1.5-2.8,2.7-4c1.1-1.1,2.5-2,4-2.7c1.5-0.6,3.2-1,5-1
				s3.4,0.3,5,1c1.5,0.7,2.9,1.5,4,2.7c1.1,1.1,2,2.5,2.7,4c0.7,1.5,1,3.1,1,4.9s-0.3,3.4-1,4.9c-0.6,1.5-1.5,2.8-2.7,3.9
				c-1.1,1.1-2.5,2-4,2.7s-3.2,1-5,1s-3.4-0.3-5-1s-2.9-1.5-4-2.7c-1.1-1.1-2-2.4-2.7-3.9C477.6,39.8,477.3,38.2,477.3,36.4z
				 M482.1,36.4c0,1.2,0.2,2.3,0.5,3.3c0.4,1,0.9,1.9,1.5,2.6s1.5,1.3,2.5,1.7s2,0.6,3.3,0.6s2.3-0.2,3.3-0.6s1.8-1,2.5-1.7
				c0.7-0.7,1.2-1.6,1.5-2.6c0.4-1,0.5-2.1,0.5-3.3c0-1.2-0.2-2.3-0.5-3.3c-0.4-1-0.9-1.9-1.5-2.6c-0.7-0.7-1.5-1.3-2.5-1.7
				s-2-0.6-3.3-0.6s-2.3,0.2-3.3,0.6s-1.8,1-2.5,1.7c-0.7,0.7-1.2,1.6-1.5,2.6C482.3,34.1,482.1,35.2,482.1,36.4z"/>
			<path fill="#FF7254" d="M508.5,10.5h4.5v37.8h-4.5V10.5z"/>
		</g>
		<g>
			<rect x="348.7" y="5" fill="none" width="43.1" height="43.3"/>
			<path fill="#FFFFFF" d="M352.7,7.4h23.4v5.7H359v8.7h16.3v5.7H359v9.6h18v5.7h-24.3V7.4z"/>
		</g>
	</g>
</g>
<g id="Calque_3">
</g>
</svg>
