<?xml version="1.0" encoding="utf-8"?>
<!-- Generator: Adobe Illustrator 23.0.1, SVG Export Plug-In . SVG Version: 6.00 Build 0)  -->
<svg version="1.1" baseProfile="tiny" id="Calque_2"
	 xmlns="http://www.w3.org/2000/svg" xmlns:xlink="http://www.w3.org/1999/xlink" x="0px" y="0px" viewBox="0 0 198.2 62.7"
	 xml:space="preserve">
<g id="iPhone_6_7_8_1">
	<rect x="-20" y="-28.1" display="none" fill="#FFFFFF" width="219" height="104"/>
	<g id="Symbole_3_2" transform="translate(-339)">
		<polygon fill="#FF7254" points="351.4,0 351.4,5.2 344.2,5.2 344.2,12.4 339,12.4 339,51.1 377.7,51.1 377.7,45.9 384.9,45.9 
			384.9,38.7 390.1,38.7 390.1,0 		"/>
		<g>
			<path fill="#FF7254" d="M395.2,24.6h4.5V28h0.1c0.9-1.3,2.1-2.3,3.6-3c1.5-0.7,3.1-1,4.7-1c1.8,0,3.5,0.3,5,0.9
				c1.5,0.6,2.8,1.5,3.8,2.6c1.1,1.1,1.9,2.5,2.4,4c0.6,1.5,0.8,3.1,0.8,4.9c0,1.8-0.3,3.4-0.8,4.9c-0.6,1.5-1.4,2.8-2.4,4
				c-1,1.1-2.3,2-3.8,2.6c-1.5,0.6-3.1,0.9-5,0.9c-1.7,0-3.3-0.4-4.8-1.1c-1.5-0.7-2.7-1.7-3.5-2.9h-0.1v17.5h-4.5V24.6z
				 M407.5,28.2c-1.2,0-2.3,0.2-3.3,0.6c-1,0.4-1.8,1-2.5,1.7c-0.7,0.7-1.2,1.6-1.5,2.6c-0.4,1-0.6,2.1-0.6,3.3
				c0,1.2,0.2,2.3,0.6,3.3c0.4,1,0.9,1.9,1.5,2.6c0.7,0.7,1.5,1.3,2.5,1.7c1,0.4,2,0.6,3.3,0.6c1.2,0,2.3-0.2,3.3-0.6
				c1-0.4,1.8-1,2.4-1.7c0.7-0.7,1.2-1.6,1.6-2.6c0.4-1,0.5-2.1,0.5-3.3c0-1.2-0.2-2.3-0.5-3.3c-0.4-1-0.9-1.9-1.6-2.6
				c-0.7-0.7-1.5-1.3-2.4-1.7C409.8,28.4,408.7,28.2,407.5,28.2z"/>
			<path fill="#FF7254" d="M425,16.1c0-0.9,0.3-1.7,1-2.3c0.7-0.6,1.4-1,2.3-1c0.9,0,1.7,0.3,2.3,1c0.6,0.7,1,1.4,1,2.3
				c0,0.9-0.3,1.7-1,2.3c-0.7,0.7-1.4,1-2.3,1c-0.9,0-1.7-0.3-2.3-1C425.4,17.8,425,17,425,16.1z M426.1,24.6h4.5v23.7h-4.5V24.6z"
				/>
			<path fill="#FF7254" d="M438.9,12.9h12.3c1.5,0,3,0.2,4.3,0.6c1.3,0.4,2.5,0.9,3.4,1.6s1.7,1.6,2.3,2.8s0.8,2.4,0.8,3.9
				c0,2-0.6,3.7-1.7,5c-1.1,1.3-2.6,2.2-4.4,2.8v0.1c1.1,0.1,2.1,0.3,3,0.8c0.9,0.5,1.7,1.1,2.4,1.9s1.2,1.7,1.6,2.7
				c0.4,1,0.6,2.2,0.6,3.4c0,1.6-0.3,3-1,4.2c-0.6,1.2-1.5,2.2-2.7,3.1c-1.1,0.8-2.5,1.5-4,1.9c-1.5,0.4-3.1,0.7-4.8,0.7h-12.2V12.9
				z M443.7,27.6h6.5c0.9,0,1.8-0.1,2.5-0.3s1.5-0.5,2.1-0.9c0.6-0.4,1.1-1,1.4-1.6c0.3-0.7,0.5-1.5,0.5-2.5c0-1.4-0.5-2.6-1.3-3.7
				c-0.9-1-2.3-1.5-4.3-1.5h-7.5V27.6z M443.7,44.1h7c0.7,0,1.5-0.1,2.4-0.2c0.9-0.2,1.7-0.5,2.5-0.9s1.4-1.1,2-1.8
				c0.5-0.8,0.8-1.8,0.8-3c0-2.1-0.7-3.7-2-4.7c-1.4-1-3.2-1.6-5.5-1.6h-7.1V44.1z"/>
			<path fill="#FF7254" d="M469.6,10.5h4.5v37.8h-4.5V10.5z"/>
			<path fill="#FF7254" d="M480.1,36.4c0-1.7,0.3-3.4,1-4.9c0.6-1.5,1.5-2.8,2.7-4c1.1-1.1,2.5-2,4-2.7c1.5-0.6,3.2-1,5-1
				c1.8,0,3.4,0.3,4.9,1c1.5,0.7,2.9,1.5,4,2.7c1.1,1.1,2,2.5,2.7,4c0.6,1.5,1,3.1,1,4.9s-0.3,3.4-1,4.9c-0.7,1.5-1.5,2.8-2.7,3.9
				c-1.1,1.1-2.5,2-4,2.7s-3.2,1-4.9,1c-1.8,0-3.4-0.3-5-1c-1.5-0.7-2.9-1.5-4-2.7c-1.1-1.1-2-2.4-2.7-3.9
				C480.4,39.8,480.1,38.2,480.1,36.4z M484.9,36.4c0,1.2,0.2,2.3,0.6,3.3c0.4,1,0.9,1.9,1.5,2.6c0.7,0.7,1.5,1.3,2.5,1.7
				c1,0.4,2,0.6,3.3,0.6c1.2,0,2.3-0.2,3.3-0.6c1-0.4,1.8-1,2.4-1.7s1.2-1.6,1.6-2.6c0.4-1,0.5-2.1,0.5-3.3c0-1.2-0.2-2.3-0.5-3.3
				c-0.4-1-0.9-1.9-1.6-2.6c-0.7-0.7-1.5-1.3-2.4-1.7c-1-0.4-2.1-0.6-3.3-0.6c-1.2,0-2.3,0.2-3.3,0.6c-1,0.4-1.8,1-2.5,1.7
				c-0.7,0.7-1.2,1.6-1.5,2.6C485.1,34.1,484.9,35.2,484.9,36.4z"/>
			<path fill="#FF7254" d="M534.7,48.1c0,1.8-0.3,3.4-0.9,4.9c-0.6,1.5-1.5,2.8-2.6,3.9c-1.1,1.1-2.5,1.9-4.1,2.5
				c-1.6,0.6-3.4,0.9-5.3,0.9c-2.3,0-4.3-0.3-6.2-1c-1.9-0.6-3.7-1.7-5.4-3.3l3-3.8c1.2,1.3,2.4,2.2,3.8,2.9c1.4,0.6,2.9,1,4.6,1
				c1.7,0,3-0.2,4.2-0.7c1.1-0.5,2-1.1,2.6-1.9c0.6-0.8,1.1-1.6,1.4-2.6c0.3-1,0.4-2,0.4-3v-3.5H530c-0.9,1.4-2,2.5-3.5,3.2
				s-3,1-4.7,1c-1.7,0-3.3-0.3-4.8-0.9c-1.5-0.6-2.8-1.5-3.8-2.5s-1.9-2.4-2.5-3.9c-0.6-1.5-0.9-3.1-0.9-4.8s0.3-3.4,0.8-4.9
				c0.6-1.5,1.4-2.8,2.4-4c1.1-1.1,2.3-2,3.8-2.6c1.5-0.6,3.1-0.9,5-0.9c1.6,0,3.2,0.3,4.7,1c1.5,0.7,2.7,1.7,3.6,3h0.1v-3.4h4.5
				V48.1z M522.4,28.2c-1.2,0-2.3,0.2-3.3,0.6s-1.8,1-2.5,1.7c-0.7,0.7-1.2,1.6-1.5,2.6c-0.4,1-0.5,2.1-0.5,3.3
				c0,2.4,0.7,4.3,2.1,5.8c1.4,1.5,3.3,2.2,5.7,2.2c2.4,0,4.3-0.7,5.7-2.2s2.1-3.4,2.1-5.8c0-1.2-0.2-2.3-0.5-3.3
				c-0.4-1-0.9-1.9-1.5-2.6c-0.7-0.7-1.5-1.3-2.5-1.7S523.6,28.2,522.4,28.2z"/>
		</g>
		<g>
			<rect x="348.7" y="5" fill="none" width="43.1" height="43.3"/>
			<path fill="#FFFFFF" d="M352.7,7.4h23.4v5.7H359v8.7h16.3v5.7H359v9.6h18v5.7h-24.3V7.4z"/>
		</g>
	</g>
</g>
<g id="Calque_3">
</g>
</svg>
